<svg width="52" height="68" viewBox="0 0 52 68" fill="none" xmlns="http://www.w3.org/2000/svg">
<path d="M7.78906 61.6367C8.65495 61.6367 9.4069 61.7256 10.0449 61.9033C10.6875 62.0765 11.182 62.3317 11.5283 62.6689C11.8792 63.0016 12.0547 63.4004 12.0547 63.8652C12.0547 64.3255 11.8792 64.722 11.5283 65.0547C11.182 65.3874 10.6875 65.6403 10.0449 65.8135C9.4069 65.9912 8.65495 66.0801 7.78906 66.0801C6.92318 66.0801 6.16895 65.9912 5.52637 65.8135C4.88835 65.6403 4.39616 65.3874 4.0498 65.0547C3.70801 64.722 3.53711 64.3255 3.53711 63.8652C3.53711 63.4004 3.70801 63.0016 4.0498 62.6689C4.39616 62.3317 4.88835 62.0765 5.52637 61.9033C6.16895 61.7256 6.92318 61.6367 7.78906 61.6367ZM2.30664 59.627H6.88672V57.2754H7.93945V59.627H13.3672V60.502H2.30664V59.627ZM3.61914 54.582H11.959V55.6074C11.9544 56.2773 11.9339 56.8447 11.8975 57.3096C11.861 57.7699 11.7676 58.278 11.6172 58.834L10.5645 58.7109C10.7103 58.1549 10.8014 57.6559 10.8379 57.2139C10.8743 56.7673 10.8926 56.2318 10.8926 55.6074V55.457H3.61914V54.582ZM4.60352 63.8652C4.60352 64.1432 4.7334 64.387 4.99316 64.5967C5.25293 64.8018 5.62207 64.959 6.10059 65.0684C6.58366 65.1777 7.14648 65.2324 7.78906 65.2324C8.43164 65.2324 8.99219 65.1777 9.4707 65.0684C9.95378 64.959 10.3252 64.8018 10.585 64.5967C10.8493 64.387 10.9837 64.1432 10.9883 63.8652C10.9837 63.5781 10.8493 63.3298 10.585 63.1201C10.3252 62.9105 9.95378 62.7487 9.4707 62.6348C8.99219 62.5163 8.43164 62.457 7.78906 62.457C7.14648 62.457 6.58366 62.5163 6.10059 62.6348C5.62207 62.7487 5.25293 62.9105 4.99316 63.1201C4.7334 63.3298 4.60352 63.5781 4.60352 63.8652ZM25.5078 61.7734H22.5684V66.1074H21.4883V61.7734H18.3711V66.1074H17.2637V61.7734H14.3789V60.8848H25.5078V61.7734ZM15.6367 57.0977C15.6367 56.5645 15.8145 56.0996 16.1699 55.7031C16.5299 55.3021 17.0312 54.9922 17.6738 54.7734C18.321 54.5547 19.0684 54.4453 19.916 54.4453C20.7637 54.4453 21.5088 54.5547 22.1514 54.7734C22.7985 54.9922 23.2998 55.3021 23.6553 55.7031C24.0153 56.0996 24.1953 56.5645 24.1953 57.0977C24.1953 57.6309 24.0153 58.0957 23.6553 58.4922C23.2998 58.8887 22.7985 59.194 22.1514 59.4082C21.5088 59.6178 20.7637 59.7227 19.916 59.7227C19.0684 59.7227 18.321 59.6178 17.6738 59.4082C17.0312 59.194 16.5299 58.8887 16.1699 58.4922C15.8145 58.0957 15.6367 57.6309 15.6367 57.0977ZM16.7441 57.0977C16.7396 57.4486 16.8695 57.7585 17.1338 58.0273C17.3981 58.2917 17.7695 58.4967 18.248 58.6426C18.7311 58.7884 19.2871 58.8613 19.916 58.8613C20.5449 58.8613 21.0986 58.7884 21.5771 58.6426C22.0557 58.4967 22.4294 58.2917 22.6982 58.0273C22.9671 57.763 23.1016 57.4531 23.1016 57.0977C23.1016 56.7422 22.9671 56.43 22.6982 56.1611C22.4294 55.8923 22.0557 55.6849 21.5771 55.5391C21.0986 55.3932 20.5449 55.3203 19.916 55.3203C19.2871 55.3203 18.7311 55.3932 18.248 55.5391C17.7695 55.6849 17.3981 55.8923 17.1338 56.1611C16.8695 56.43 16.7396 56.7422 16.7441 57.0977ZM35.8984 58.9707H37.9355V59.8594H35.8984V66.1074H34.832V53.9531H35.8984V58.9707ZM26.4238 55.9082H29.5547V54.1035H30.6211V55.9082H33.6562V56.7969H26.4238V55.9082ZM27.1211 60.5977C27.1211 60.0599 27.2487 59.5791 27.5039 59.1553C27.7591 58.7314 28.1123 58.401 28.5635 58.1641C29.0192 57.9271 29.5319 57.8086 30.1016 57.8086C30.6667 57.8086 31.1748 57.9271 31.626 58.1641C32.0771 58.401 32.4303 58.7314 32.6855 59.1553C32.9453 59.5791 33.0775 60.0599 33.082 60.5977C33.0775 61.14 32.9453 61.623 32.6855 62.0469C32.4303 62.4661 32.0771 62.7943 31.626 63.0312C31.1748 63.2682 30.6667 63.3867 30.1016 63.3867C29.5319 63.3867 29.0192 63.2682 28.5635 63.0312C28.1123 62.7943 27.7591 62.4661 27.5039 62.0469C27.2487 61.623 27.1211 61.14 27.1211 60.5977ZM28.1465 60.5977C28.1465 60.9622 28.2285 61.2881 28.3926 61.5752C28.5612 61.8577 28.7936 62.0788 29.0898 62.2383C29.3906 62.3978 29.7279 62.4753 30.1016 62.4707C30.4707 62.4753 30.8034 62.3978 31.0996 62.2383C31.3958 62.0788 31.6283 61.8577 31.7969 61.5752C31.9655 61.2881 32.0521 60.9622 32.0566 60.5977C32.0521 60.2376 31.9655 59.9141 31.7969 59.627C31.6283 59.3353 31.3958 59.1097 31.0996 58.9502C30.8034 58.7907 30.4707 58.7109 30.1016 58.7109C29.7279 58.7109 29.3906 58.7907 29.0898 58.9502C28.7936 59.1097 28.5612 59.3353 28.3926 59.627C28.2285 59.9141 28.1465 60.2376 28.1465 60.5977ZM48.6406 66.1074H47.5605V53.9531H48.6406V66.1074ZM38.7422 62.9492C40.3646 62.179 41.6064 61.222 42.4678 60.0781C43.3337 58.9342 43.8281 57.6263 43.9512 56.1543H39.3027V55.2793H45.0449C45.0358 57.1113 44.571 58.7588 43.6504 60.2217C42.7298 61.6846 41.2897 62.8854 39.3301 63.8242L38.7422 62.9492Z" fill="#333333"/>
<circle cx="31.65" cy="17.65" r="2.65" fill="#666666"/>
<circle cx="31.65" cy="30.65" r="2.65" fill="#666666"/>
<circle cx="19.65" cy="23.65" r="2.65" fill="#666666"/>
<path d="M19 24.5581L33.2344 17" stroke="#666666" stroke-width="1.5" stroke-linecap="round" stroke-linejoin="round"/>
<path d="M20 24L32 31" stroke="#666666" stroke-width="1.5" stroke-linecap="round" stroke-linejoin="round"/>
</svg>
