<svg width="36" height="36" viewBox="0 0 36 36" fill="none" xmlns="http://www.w3.org/2000/svg">
<path fill-rule="evenodd" clip-rule="evenodd" d="M27.1535 9.22642C27.6454 9.77982 27.6121 10.6426 27.0792 11.1534L10.7025 26.8522C10.1696 27.3631 9.33881 27.3286 8.8469 26.7752C8.355 26.2217 8.38823 25.359 8.92113 24.8482L25.2979 9.14934C25.8308 8.6385 26.6616 8.67301 27.1535 9.22642Z" fill="#999999"/>
<path fill-rule="evenodd" clip-rule="evenodd" d="M8.84618 9.22564C9.33792 8.67238 10.1687 8.63812 10.7017 9.14912L27.0783 24.8479C27.6113 25.3589 27.6448 26.2217 27.1531 26.7749C26.6613 27.3282 25.8306 27.3624 25.2975 26.8514L8.92099 11.1526C8.38793 10.6416 8.35444 9.77889 8.84618 9.22564Z" fill="#999999"/>
</svg>
