<svg width="32" height="32" viewBox="0 0 32 32" fill="none" xmlns="http://www.w3.org/2000/svg">
<rect x="5.87654" y="6.85054" width="21.6213" height="19.6734" rx="2.04526" stroke="#6A6A6A" stroke-width="1.75308"/>
<path d="M21.3166 5V8.40877M11.8583 5V8.40877M5.97412 11.8175H27.4006" stroke="#6A6A6A" stroke-width="1.75308" stroke-linecap="round"/>
<path d="M10.1189 15.8425C10.6977 14.9743 11.5659 14.5958 12.5788 14.5958C14.4042 14.5958 15.3058 15.6421 15.3058 16.8888C15.3058 17.8905 14.6714 18.5695 14.1371 18.7364C15.0053 18.9257 15.6397 19.7271 15.6397 20.7956C15.6397 22.532 14.2929 23.3223 12.6122 23.3223C11.1763 23.3223 10.1523 22.5765 9.8184 21.8864C9.72936 21.6972 9.68483 21.597 9.68483 21.4412C9.68483 21.1073 9.9631 20.8179 10.3638 20.8179C10.5753 20.8179 10.7311 20.8958 10.8981 21.1629C11.1541 21.597 11.655 22.0645 12.7346 22.0645C13.703 22.0645 14.382 21.597 14.382 20.74C14.382 19.8273 13.4359 19.3375 12.2004 19.4377C11.7329 19.4711 11.4323 19.2485 11.4323 18.781C11.4323 18.3024 11.6995 18.0909 12.2004 18.1131C13.2355 18.1577 14.0369 17.7124 14.0369 16.911C14.0369 16.2654 13.5249 15.8313 12.6011 15.8313C11.9444 15.8313 11.4769 16.1319 11.1207 16.6661C11.0094 16.8554 10.8536 16.8888 10.6755 16.8888C10.2859 16.8888 9.97423 16.5882 9.97423 16.2543C9.97423 16.0762 10.0299 15.9649 10.1189 15.8425ZM22.3173 23.1665H17.954C17.7092 23.1665 17.4643 22.955 17.4643 22.5431C17.4643 22.109 17.7092 21.8976 17.9763 21.8976H19.824V16.5214L18.3436 17.3896C18.2546 17.4342 18.1767 17.4676 18.0208 17.4676C17.6201 17.4676 17.3641 17.1225 17.3641 16.7663C17.3641 16.5437 17.4198 16.3879 17.6313 16.2766L20.0577 14.8852C20.1579 14.8296 20.2915 14.7962 20.4473 14.7962C20.8146 14.7962 21.1152 14.9965 21.1152 15.375V21.8976H22.3173C22.6067 21.8976 22.8738 22.109 22.8738 22.5431C22.8738 22.9438 22.6067 23.1665 22.3173 23.1665Z" fill="#6A6A6A"/>
</svg>
