<svg width="52" height="68" viewBox="0 0 52 68" fill="none" xmlns="http://www.w3.org/2000/svg">
<path d="M12.3145 61.1309H11.2344V60.4609H8.77344V59.75H11.2344V53.9668H12.3145V61.1309ZM3.16113 58.5469C6.05501 58.5469 8.41341 58.4466 10.2363 58.2461L10.3047 58.9434C9.19727 59.1029 7.98503 59.2122 6.66797 59.2715V61.1719H5.61523V59.3125C4.84961 59.3398 3.76953 59.3535 2.375 59.3535L2.25195 58.5469H3.16113ZM3.19531 56.0312C3.19531 55.6576 3.31836 55.334 3.56445 55.0605C3.8151 54.7826 4.16829 54.5706 4.62402 54.4248C5.07975 54.2744 5.61068 54.1992 6.2168 54.1992C6.81836 54.1992 7.34473 54.2744 7.7959 54.4248C8.25163 54.5706 8.60482 54.7826 8.85547 55.0605C9.10612 55.334 9.23372 55.6576 9.23828 56.0312C9.23372 56.4049 9.10612 56.7285 8.85547 57.002C8.60482 57.2754 8.25163 57.485 7.7959 57.6309C7.34473 57.7767 6.81836 57.8496 6.2168 57.8496C5.60612 57.8496 5.07292 57.7767 4.61719 57.6309C4.16602 57.485 3.8151 57.2754 3.56445 57.002C3.31836 56.7285 3.19531 56.4049 3.19531 56.0312ZM4.11133 61.5684H12.3145V64.084H5.21875V65.1777H12.7109V65.9707H4.16602V63.332H11.248V62.3477H4.11133V61.5684ZM4.20703 56.0312C4.20703 56.2454 4.28906 56.4346 4.45312 56.5986C4.61719 56.7581 4.85189 56.8835 5.15723 56.9746C5.46257 57.0658 5.81576 57.1113 6.2168 57.1113C6.61328 57.1113 6.96191 57.0658 7.2627 56.9746C7.56803 56.8835 7.80501 56.7581 7.97363 56.5986C8.14225 56.4346 8.22656 56.2454 8.22656 56.0312C8.22656 55.8171 8.14225 55.6302 7.97363 55.4707C7.80957 55.3066 7.57715 55.179 7.27637 55.0879C6.98014 54.9967 6.63607 54.9512 6.24414 54.9512C5.83398 54.9512 5.47396 54.9967 5.16406 55.0879C4.85872 55.1745 4.62174 55.2998 4.45312 55.4639C4.28906 55.6234 4.20703 55.8125 4.20703 56.0312ZM24.4551 60.3105H23.3887V58.752H20.5176V59.8184H15.0078V54.5273H16.0742V56.2773H19.4648V54.5273H20.5176V55.7031H23.3887V53.9531H24.4551V60.3105ZM19.4648 58.9434V57.125H16.0742V58.9434H19.4648ZM16.5801 60.8984H24.4551V63.7559H17.6738V65.082H24.9199V65.9434H16.6074V62.9355H23.3887V61.7598H16.5801V60.8984ZM23.3887 57.9043V56.5371H20.5176V57.9043H23.3887ZM37.6211 64.5488H26.4922V63.6602H31.4961V61.0352H27.8047V54.8145H28.8848V57.0156H35.2012V54.8145H36.2539V61.0352H32.5488V63.6602H37.6211V64.5488ZM35.2012 60.1602V57.8906H28.8848V60.1602H35.2012ZM48.6406 66.1074H47.5605V53.9531H48.6406V66.1074ZM38.7422 62.9492C40.3646 62.179 41.6064 61.222 42.4678 60.0781C43.3337 58.9342 43.8281 57.6263 43.9512 56.1543H39.3027V55.2793H45.0449C45.0358 57.1113 44.571 58.7588 43.6504 60.2217C42.7298 61.6846 41.2897 62.8854 39.3301 63.8242L38.7422 62.9492Z" fill="#333333"/>
<rect x="14.9" y="13.9" width="22.2" height="20.2" rx="2.1" stroke="#666666" stroke-width="1.8"/>
<path d="M30.7531 12V15.5M21.0417 12V15.5M15 19H37" stroke="#666666" stroke-width="1.8" stroke-linecap="round"/>
<path d="M19.5552 22.8914C20.1495 22 21.0409 21.6114 22.0809 21.6114C23.9552 21.6114 24.8809 22.6857 24.8809 23.9657C24.8809 24.9943 24.2295 25.6914 23.6809 25.8629C24.5723 26.0571 25.2238 26.88 25.2238 27.9771C25.2238 29.76 23.8409 30.5714 22.1152 30.5714C20.6409 30.5714 19.5895 29.8057 19.2466 29.0971C19.1552 28.9029 19.1095 28.8 19.1095 28.64C19.1095 28.2971 19.3952 28 19.8066 28C20.0238 28 20.1838 28.08 20.3552 28.3543C20.618 28.8 21.1323 29.28 22.2409 29.28C23.2352 29.28 23.9323 28.8 23.9323 27.92C23.9323 26.9829 22.9609 26.48 21.6923 26.5829C21.2123 26.6171 20.9038 26.3886 20.9038 25.9086C20.9038 25.4171 21.178 25.2 21.6923 25.2229C22.7552 25.2686 23.578 24.8114 23.578 23.9886C23.578 23.3257 23.0523 22.88 22.1038 22.88C21.4295 22.88 20.9495 23.1886 20.5838 23.7371C20.4695 23.9314 20.3095 23.9657 20.1266 23.9657C19.7266 23.9657 19.4066 23.6571 19.4066 23.3143C19.4066 23.1314 19.4638 23.0171 19.5552 22.8914ZM32.08 30.4114H27.6C27.3486 30.4114 27.0971 30.1943 27.0971 29.7714C27.0971 29.3257 27.3486 29.1086 27.6229 29.1086H29.52V23.5886L28 24.48C27.9086 24.5257 27.8286 24.56 27.6686 24.56C27.2571 24.56 26.9943 24.2057 26.9943 23.84C26.9943 23.6114 27.0514 23.4514 27.2686 23.3371L29.76 21.9086C29.8629 21.8514 30 21.8171 30.16 21.8171C30.5371 21.8171 30.8457 22.0229 30.8457 22.4114V29.1086H32.08C32.3771 29.1086 32.6514 29.3257 32.6514 29.7714C32.6514 30.1829 32.3771 30.4114 32.08 30.4114Z" fill="#666666"/>
</svg>
