<svg width="64" height="64" viewBox="0 0 64 64" fill="none" xmlns="http://www.w3.org/2000/svg">
<circle cx="22.6222" cy="28.6234" r="11.4269" stroke="#F6C948" stroke-width="4"/>
<path d="M22.7716 9V12.8363" stroke="#F6C948" stroke-width="4" stroke-linecap="round"/>
<path d="M22.7716 44.4114V48.2476" stroke="#F6C948" stroke-width="4" stroke-linecap="round"/>
<path d="M2.99988 28.7712L7.13123 28.7712" stroke="#F6C948" stroke-width="4" stroke-linecap="round"/>
<path d="M38.4116 28.7712L42.543 28.7712" stroke="#F6C948" stroke-width="4" stroke-linecap="round"/>
<path d="M12.9233 45.7568L14.8868 42.3561" stroke="#F6C948" stroke-width="4" stroke-linecap="round"/>
<path d="M30.6549 15.0393L32.6183 11.6385" stroke="#F6C948" stroke-width="4" stroke-linecap="round"/>
<path d="M12.9233 45.7568L14.8868 42.3561" stroke="#F6C948" stroke-width="4" stroke-linecap="round"/>
<path d="M30.6549 15.0393L32.6183 11.6385" stroke="#F6C948" stroke-width="4" stroke-linecap="round"/>
<path d="M5.71216 38.5471L9.11293 36.5837" stroke="#F6C948" stroke-width="4" stroke-linecap="round"/>
<path d="M36.4304 20.812L39.8312 18.8486" stroke="#F6C948" stroke-width="4" stroke-linecap="round"/>
<path d="M5.71216 38.5471L9.11293 36.5837" stroke="#F6C948" stroke-width="4" stroke-linecap="round"/>
<path d="M36.4304 20.812L39.8312 18.8486" stroke="#F6C948" stroke-width="4" stroke-linecap="round"/>
<path d="M39.8295 38.5471L36.4287 36.5837" stroke="#F6C948" stroke-width="4" stroke-linecap="round"/>
<path d="M9.11499 20.812L5.71422 18.8486" stroke="#F6C948" stroke-width="4" stroke-linecap="round"/>
<path d="M12.9233 11.6389L14.8868 15.0397" stroke="#F6C948" stroke-width="4" stroke-linecap="round"/>
<path d="M30.6549 42.356L32.6183 45.7567" stroke="#F6C948" stroke-width="4" stroke-linecap="round"/>
<mask id="path-18-inside-1_921_8968" fill="white">
<path fill-rule="evenodd" clip-rule="evenodd" d="M41.9286 54.9874C53.3571 54.6023 62.5024 45.308 62.5024 33.8988C62.5024 22.2451 52.9607 12.7979 41.1905 12.7979C30.4586 12.7979 21.5794 20.6517 20.0962 30.871C19.1476 30.6436 18.1564 30.5231 17.1366 30.5231C10.2609 30.5231 4.68703 36.0025 4.68703 42.7616C4.68703 49.5208 10.2609 55.0002 17.1366 55.0002C17.2081 55.0002 17.2795 54.9996 17.3507 54.9984C17.3675 54.9994 17.3845 54.9998 17.4015 54.9998H41.7447C41.8071 54.9998 41.8685 54.9956 41.9286 54.9874Z"/>
</mask>
<path fill-rule="evenodd" clip-rule="evenodd" d="M41.9286 54.9874C53.3571 54.6023 62.5024 45.308 62.5024 33.8988C62.5024 22.2451 52.9607 12.7979 41.1905 12.7979C30.4586 12.7979 21.5794 20.6517 20.0962 30.871C19.1476 30.6436 18.1564 30.5231 17.1366 30.5231C10.2609 30.5231 4.68703 36.0025 4.68703 42.7616C4.68703 49.5208 10.2609 55.0002 17.1366 55.0002C17.2081 55.0002 17.2795 54.9996 17.3507 54.9984C17.3675 54.9994 17.3845 54.9998 17.4015 54.9998H41.7447C41.8071 54.9998 41.8685 54.9956 41.9286 54.9874Z" fill="white"/>
<path d="M41.9286 54.9874L41.7939 50.9897L41.5897 50.9965L41.3872 51.0242L41.9286 54.9874ZM20.0962 30.871L19.1638 34.7608L23.4254 35.7823L24.0548 31.4455L20.0962 30.871ZM17.3507 54.9984L17.5735 51.0046L17.429 50.9966L17.2843 50.999L17.3507 54.9984ZM42.0633 58.9851C55.6041 58.5288 66.5024 47.5076 66.5024 33.8988H58.5024C58.5024 43.1084 51.11 50.6757 41.7939 50.9897L42.0633 58.9851ZM66.5024 33.8988C66.5024 19.9985 55.1323 8.79785 41.1905 8.79785V16.7979C50.7892 16.7979 58.5024 24.4917 58.5024 33.8988H66.5024ZM41.1905 8.79785C28.4727 8.79785 17.9065 18.1092 16.1377 30.2965L24.0548 31.4455C25.2523 23.1942 32.4444 16.7979 41.1905 16.7979V8.79785ZM21.0287 26.9812C19.7767 26.6811 18.4726 26.5231 17.1366 26.5231V34.5231C17.8403 34.5231 18.5186 34.6061 19.1638 34.7608L21.0287 26.9812ZM17.1366 26.5231C8.11649 26.5231 0.687028 33.7291 0.687028 42.7616H8.68703C8.68703 38.2758 12.4053 34.5231 17.1366 34.5231V26.5231ZM0.687028 42.7616C0.687028 51.7941 8.11649 59.0002 17.1366 59.0002V51.0002C12.4053 51.0002 8.68703 47.2475 8.68703 42.7616H0.687028ZM17.1366 59.0002C17.2302 59.0002 17.3237 58.9994 17.4171 58.9979L17.2843 50.999C17.2353 50.9998 17.1861 51.0002 17.1366 51.0002V59.0002ZM17.4015 50.9998C17.459 50.9998 17.5164 51.0015 17.5735 51.0046L17.1279 58.9922C17.2187 58.9973 17.3099 58.9998 17.4015 58.9998V50.9998ZM41.7447 50.9998H17.4015V58.9998H41.7447V50.9998ZM41.3872 51.0242C41.506 51.008 41.6255 50.9998 41.7447 50.9998V58.9998C41.9886 58.9998 42.2309 58.9832 42.4699 58.9506L41.3872 51.0242Z" fill="#D9DEE4" mask="url(#path-18-inside-1_921_8968)"/>
</svg>
