<svg width="64" height="64" viewBox="0 0 64 64" fill="none" xmlns="http://www.w3.org/2000/svg">
<mask id="path-1-inside-1_921_8969" fill="white">
<path fill-rule="evenodd" clip-rule="evenodd" d="M19.3498 51.7376C13.961 52.4544 8.24455 50.2868 4.53932 45.5649C-0.943144 38.578 0.0538085 28.6442 6.76608 23.3773C10.5547 20.4045 15.3542 19.5538 19.8024 20.633C23.778 12.7623 33.069 8.96244 41.448 12.0999C48.7754 14.8437 53.1442 22.0461 52.673 29.5262C58.3875 29.5969 62.9995 34.5653 62.9995 40.684C62.9995 46.8467 58.3209 51.8425 52.5495 51.8425C52.0613 51.8425 51.581 51.8068 51.1107 51.7376H19.3498Z"/>
</mask>
<path d="M19.3498 51.7376V47.7376H19.0849L18.8224 47.7725L19.3498 51.7376ZM4.53932 45.5649L7.68618 43.0956H7.68618L4.53932 45.5649ZM6.76608 23.3773L4.29681 20.2304H4.29681L6.76608 23.3773ZM19.8024 20.633L18.8593 24.5202L21.9424 25.2683L23.3728 22.4365L19.8024 20.633ZM41.448 12.0999L40.0453 15.8459L41.448 12.0999ZM52.673 29.5262L48.6809 29.2747L48.4164 33.4738L52.6235 33.5259L52.673 29.5262ZM51.1107 51.7376L51.6926 47.7802L51.4032 47.7376H51.1107V51.7376ZM18.8224 47.7725C14.8326 48.3032 10.515 46.7007 7.68618 43.0956L1.39246 48.0341C5.97409 53.873 13.0894 56.6055 19.8772 55.7027L18.8224 47.7725ZM7.68618 43.0956C3.4732 37.7265 4.37878 30.335 9.23535 26.5241L4.29681 20.2304C-4.27116 26.9535 -5.35948 39.4294 1.39247 48.0341L7.68618 43.0956ZM9.23535 26.5241C11.9921 24.3609 15.5156 23.709 18.8593 24.5202L20.7456 16.7458C15.1929 15.3986 9.11718 16.448 4.29681 20.2304L9.23535 26.5241ZM23.3728 22.4365C26.4511 16.3421 33.6233 13.4412 40.0453 15.8459L42.8507 8.35394C32.5148 4.48366 21.1048 9.18258 16.232 18.8296L23.3728 22.4365ZM40.0453 15.8459C45.66 17.9483 49.0458 23.4827 48.6809 29.2747L56.6651 29.7777C57.2427 20.6096 51.8909 11.739 42.8507 8.35394L40.0453 15.8459ZM52.6235 33.5259C55.9122 33.5666 58.9995 36.5112 58.9995 40.684H66.9995C66.9995 32.6194 60.8628 25.6272 52.7225 25.5265L52.6235 33.5259ZM58.9995 40.684C58.9995 44.8887 55.8686 47.8425 52.5495 47.8425V55.8425C60.7731 55.8425 66.9995 48.8046 66.9995 40.684H58.9995ZM52.5495 47.8425C52.2569 47.8425 51.9711 47.8211 51.6926 47.7802L50.5288 55.6951C51.191 55.7924 51.8658 55.8425 52.5495 55.8425V47.8425ZM51.1107 47.7376H19.3498V55.7376H51.1107V47.7376Z" fill="#D9DEE4" mask="url(#path-1-inside-1_921_8969)"/>
</svg>
