<svg width="75" height="75" viewBox="0 0 75 75" fill="none" xmlns="http://www.w3.org/2000/svg">
<path fill-rule="evenodd" clip-rule="evenodd" d="M69.8851 20.5475C70.3853 18.6796 70.4385 16.7972 70.1103 15.014C68.8422 17.916 65.6255 19.5589 62.454 18.755C61.4165 18.492 60.4992 17.9964 59.744 17.3381C59.415 17.0955 59.1156 16.8134 58.8529 16.4972C58.3915 15.9419 58.0539 15.2945 57.8627 14.5981L57.8432 14.5251C57.4335 13.3484 57.3522 12.0427 57.6807 10.7446C58.3456 8.11777 60.5019 6.26287 63.0165 5.85489C62.3719 5.55708 61.6932 5.30999 60.9841 5.11985C54.6696 3.42674 48.1897 6.85168 45.9426 12.8535C47.4106 14.1458 48.7158 15.619 49.8233 17.2382C49.828 16.5784 49.9158 15.9083 50.0945 15.241C50.5951 13.3715 51.724 11.8395 53.1923 10.8107C53.1169 11.1061 53.0551 11.4053 53.0072 11.7076C52.7872 13.0956 52.8659 14.5146 53.2381 15.8698C53.6102 17.2249 54.2671 18.485 55.165 19.5656C56.0629 20.6463 57.181 21.5226 58.4446 22.1361C59.7081 22.7496 61.088 23.086 62.4919 23.1229C62.6818 23.1279 62.8715 23.1274 63.0608 23.1214C61.1362 24.8815 58.3832 25.6514 55.6805 24.9267C54.6227 24.6431 53.6727 24.1574 52.8609 23.5221C53.0898 24.2618 53.2831 25.0171 53.4388 25.786C53.594 25.781 53.7498 25.7784 53.9062 25.7784C57.2305 25.7784 60.2854 26.9327 62.6925 28.8626C66.1111 27.3911 68.8472 24.4239 69.8851 20.5475Z" fill="url(#paint0_linear_703_2306)"/>
<path fill-rule="evenodd" clip-rule="evenodd" d="M4.6875 30.4688C4.6875 40.694 10.4282 49.5288 18.75 53.697V48.2819C13.1489 44.567 9.375 38.037 9.375 30.4688C9.375 18.6573 18.5667 9.375 29.5507 9.375C38.8684 9.375 46.8964 16.0548 49.1176 25.2918L49.1247 25.2889C49.4384 26.5705 49.6384 27.8992 49.7129 29.2628C51.1733 28.5309 52.7981 28.125 54.4905 28.125C60.4812 28.125 65.625 33.21 65.625 39.8437C65.625 43.8527 63.7464 47.2961 60.9375 49.3933V54.8306C66.4623 52.2714 70.3125 46.5238 70.3125 39.8437C70.3125 30.7828 63.2288 23.4375 54.4905 23.4375C54.1534 23.4375 53.8187 23.4485 53.4868 23.47C50.5455 12.6323 40.9429 4.6875 29.5507 4.6875C15.8191 4.6875 4.6875 16.2302 4.6875 30.4688ZM43.8725 47.3498C44.364 47.6336 45.1338 47.5097 45.5275 46.8276C45.7431 46.4541 46.0202 45.6783 46.2209 44.4152C46.3009 43.9117 46.3613 43.3806 46.405 42.8353C45.0361 43.8038 43.9989 44.7853 43.497 45.6549C43.1034 46.337 43.381 47.0659 43.8725 47.3498ZM46.3931 37.3164C48.836 35.9477 50.9044 35.1659 50.9044 35.1659C50.9044 35.1659 51.175 37.3668 51.1855 40.1399C51.1971 43.1777 50.8966 46.9022 49.5866 49.172C47.9392 52.0264 44.3319 53.0282 41.5294 51.4096C38.7269 49.791 37.7905 46.1649 39.4379 43.3105C40.8755 40.8197 43.839 38.7474 46.3931 37.3164ZM28.3971 49.7353C28.8886 50.0191 29.6584 49.8952 30.0521 49.2131C30.2677 48.8396 30.5448 48.0638 30.7455 46.8007C30.8255 46.2972 30.8859 45.7661 30.9295 45.2208C29.5606 46.1893 28.5235 47.1709 28.0216 48.0404C27.628 48.7225 27.9056 49.4514 28.3971 49.7353ZM30.9176 39.702C33.3606 38.3333 35.429 37.5514 35.429 37.5514C35.429 37.5514 35.6995 39.7523 35.7101 42.5254C35.7217 45.5633 35.4212 49.2877 34.1112 51.5575C32.4638 54.4119 28.8565 55.4137 26.054 53.7951C23.2515 52.1765 22.3151 48.5504 23.9625 45.696C25.4001 43.2052 28.3636 41.1329 30.9176 39.702ZM50.8108 61.202C50.4171 61.884 49.6473 62.0079 49.1558 61.7241C48.6644 61.4403 48.3867 60.7113 48.7803 60.0293C49.2822 59.1597 50.3194 58.1781 51.6883 57.2096C51.6446 57.7549 51.5842 58.286 51.5042 58.7896C51.3035 60.0526 51.0264 60.8284 50.8108 61.202ZM56.1877 49.5402C56.1877 49.5402 54.1193 50.3221 51.6764 51.6908C49.1223 53.1217 46.1588 55.194 44.7212 57.6849C43.0738 60.5393 44.0102 64.1654 46.8127 65.784C49.6152 67.4025 53.2225 66.4007 54.8699 63.5463C56.1799 61.2765 56.4804 57.5521 56.4688 54.5143C56.4583 51.7412 56.1877 49.5402 56.1877 49.5402ZM33.4097 65.4783C33.9012 65.7622 34.6711 65.6383 35.0647 64.9562C35.2803 64.5827 35.5574 63.8068 35.7582 62.5438C35.8382 62.0402 35.8985 61.5092 35.9422 60.9639C34.5733 61.9323 33.5361 62.9139 33.0343 63.7835C32.6406 64.4656 32.9183 65.1945 33.4097 65.4783ZM35.9303 55.445C38.3733 54.0763 40.4416 53.2945 40.4416 53.2945C40.4416 53.2945 40.7122 55.4954 40.7228 58.2685C40.7343 61.3063 40.4339 65.0308 39.1239 67.3006C37.4765 70.155 33.8691 71.1568 31.0666 69.5382C28.2641 67.9196 27.3277 64.2935 28.9751 61.4391C30.4127 58.9483 33.3762 56.8759 35.9303 55.445Z" fill="url(#paint1_linear_703_2306)"/>
<defs>
<linearGradient id="paint0_linear_703_2306" x1="58.1299" y1="4.6875" x2="58.1299" y2="28.8626" gradientUnits="userSpaceOnUse">
<stop stop-color="#F5BD52"/>
<stop offset="1" stop-color="#F5DA79"/>
</linearGradient>
<linearGradient id="paint1_linear_703_2306" x1="37.5" y1="4.6875" x2="37.5" y2="70.3123" gradientUnits="userSpaceOnUse">
<stop stop-color="#95B6F6"/>
<stop offset="1" stop-color="#5193DE"/>
</linearGradient>
</defs>
</svg>
