<svg width="20" height="20" viewBox="0 0 20 20" fill="none" xmlns="http://www.w3.org/2000/svg">
<path fill-rule="evenodd" clip-rule="evenodd" d="M8.99162 2.99703V1.19873H10.1905V2.99703H8.99162ZM12.3688 3.58077L13.268 2.02339L14.3062 2.62283L13.4071 4.1802L12.3688 3.58077ZM9.59105 13.7868C11.9085 13.7868 13.7871 11.9082 13.7871 9.59081C13.7871 7.2734 11.9085 5.39477 9.59105 5.39477C7.27364 5.39477 5.39501 7.2734 5.39501 9.59081C5.39501 11.9082 7.27364 13.7868 9.59105 13.7868ZM9.59105 14.9857C12.5706 14.9857 14.986 12.5703 14.986 9.59081C14.986 6.61128 12.5706 4.1959 9.59105 4.1959C6.61153 4.1959 4.19614 6.61128 4.19614 9.59081C4.19614 12.5703 6.61153 14.9857 9.59105 14.9857ZM16.1848 8.99137H17.9831V10.1902H16.1848V8.99137ZM16.5591 4.87564L15.0017 5.77479L15.6011 6.81304L17.1585 5.91389L16.5591 4.87564ZM4.87589 2.62283L5.77504 4.1802L6.81329 3.58077L5.91414 2.02339L4.87589 2.62283ZM3.58097 6.81304L2.0236 5.91389L2.62303 4.87564L4.18041 5.77479L3.58097 6.81304ZM8.99162 16.1846V17.9829H10.1905V16.1846H8.99162ZM2.99728 8.99137H1.19897V10.1902H2.99728V8.99137ZM2.02357 13.2677L3.58094 12.3686L4.18038 13.4068L2.623 14.306L2.02357 13.2677ZM5.77507 15.0015L4.87592 16.5589L5.91417 17.1583L6.81332 15.6009L5.77507 15.0015ZM13.268 17.1583L12.3688 15.6009L13.4071 15.0015L14.3062 16.5589L13.268 17.1583ZM15.0017 13.4068L16.5591 14.306L17.1585 13.2677L15.6012 12.3686L15.0017 13.4068Z" fill="#333333"/>
</svg>
