<svg width="64" height="64" viewBox="0 0 64 64" fill="none" xmlns="http://www.w3.org/2000/svg">
<mask id="path-1-inside-1_921_8973" fill="white">
<path fill-rule="evenodd" clip-rule="evenodd" d="M19.3814 46.4779C13.9833 47.1961 8.25695 45.0249 4.54532 40.2948C-0.946435 33.2961 0.0522056 23.3455 6.77584 18.0696C10.571 15.0917 15.3789 14.2396 19.8347 15.3208C23.8171 7.43707 33.1238 3.63091 41.5168 6.77367C48.8567 9.52208 53.2329 16.7368 52.7608 24.2296C58.485 24.3003 63.1049 29.2772 63.1049 35.4063C63.1049 41.5794 58.4184 46.5837 52.6372 46.5837C52.0711 46.5837 51.5155 46.5357 50.9737 46.4434C50.8247 46.4661 50.6721 46.4779 50.5168 46.4779H19.3814Z"/>
</mask>
<path d="M19.3814 46.4779V42.4779H19.1165L18.8539 42.5129L19.3814 46.4779ZM4.54532 40.2948L7.69217 37.8255H7.69217L4.54532 40.2948ZM6.77584 18.0696L4.30657 14.9228H4.30657L6.77584 18.0696ZM19.8347 15.3208L18.8915 19.208L21.9746 19.9562L23.4051 17.1244L19.8347 15.3208ZM41.5168 6.77367L40.1141 10.5197L41.5168 6.77367ZM52.7608 24.2296L48.7687 23.9781L48.5041 28.1773L52.7114 28.2293L52.7608 24.2296ZM50.9737 46.4434L51.646 42.5003L51.0086 42.3916L50.3694 42.4893L50.9737 46.4434ZM18.8539 42.5129C14.8548 43.0449 10.5274 41.4387 7.69217 37.8255L1.39846 42.7641C5.98652 48.6111 13.1118 51.3473 19.909 50.443L18.8539 42.5129ZM7.69217 37.8255C3.4699 32.4446 4.37718 25.0362 9.24511 21.2165L4.30657 14.9228C-4.27276 21.6548 -5.36277 34.1475 1.39846 42.7641L7.69217 37.8255ZM9.24511 21.2165C12.0084 19.0482 15.5402 18.3948 18.8915 19.208L20.778 11.4337C15.2176 10.0844 9.13353 11.1352 4.30657 14.9228L9.24511 21.2165ZM23.4051 17.1244C26.4902 11.0169 33.678 8.10968 40.1141 10.5197L42.9195 3.02767C32.5695 -0.847855 21.1441 3.85729 16.2644 13.5173L23.4051 17.1244ZM40.1141 10.5197C45.7412 12.6267 49.1344 18.1734 48.7687 23.9781L56.7529 24.4811C57.3313 15.3003 51.9721 6.41743 42.9195 3.02767L40.1141 10.5197ZM52.7114 28.2293C56.0098 28.27 59.1049 31.2231 59.1049 35.4063H67.1049C67.1049 27.3313 60.9603 20.3306 52.8102 20.2299L52.7114 28.2293ZM59.1049 35.4063C59.1049 39.6215 55.9661 42.5837 52.6372 42.5837V50.5837C60.8706 50.5837 67.1049 43.5373 67.1049 35.4063H59.1049ZM52.6372 42.5837C52.2976 42.5837 51.9669 42.555 51.646 42.5003L50.3014 50.3865C51.0641 50.5165 51.8446 50.5837 52.6372 50.5837V42.5837ZM50.3694 42.4893C50.4198 42.4816 50.4692 42.4779 50.5168 42.4779V50.4779C50.8751 50.4779 51.2297 50.4507 51.5781 50.3974L50.3694 42.4893ZM50.5168 42.4779H19.3814V50.4779H50.5168V42.4779Z" fill="#D9DEE4" mask="url(#path-1-inside-1_921_8973)"/>
<path d="M34.4238 30.8608L24.2514 48.48" stroke="#C2D7EA" stroke-width="5" stroke-linecap="round"/>
<path d="M36.8457 42.4863L28.1265 57.5885" stroke="#C2D7EA" stroke-width="5" stroke-linecap="round"/>
<path d="M50.4082 38.6113L41.689 53.7135" stroke="#C2D7EA" stroke-width="5" stroke-linecap="round"/>
<path d="M21.7207 35L13.0008 49.554" stroke="#C2D7EA" stroke-width="5" stroke-linecap="round"/>
</svg>
