<svg width="64" height="64" viewBox="0 0 64 64" fill="none" xmlns="http://www.w3.org/2000/svg">
<mask id="path-1-inside-1_921_8972" fill="white">
<path fill-rule="evenodd" clip-rule="evenodd" d="M19.4759 45.0155C14.05 45.7374 8.29421 43.555 4.56351 38.8006C-0.956423 31.766 0.0473422 21.7644 6.80548 16.4614C10.6203 13.468 15.4532 12.6116 19.9321 13.6987C23.9349 5.77433 33.2894 1.94853 41.7256 5.10745C49.1031 7.86994 53.5017 15.1216 53.0273 22.6528C58.7809 22.7239 63.4245 27.7263 63.4245 33.8868C63.4245 40.0916 58.7138 45.1216 52.903 45.1216C52.3366 45.1216 51.7807 45.0738 51.2386 44.9818C51.0915 45.004 50.941 45.0155 50.7878 45.0155H19.4759Z"/>
</mask>
<path d="M19.4759 45.0155V41.0155H19.2109L18.9483 41.0504L19.4759 45.0155ZM4.56351 38.8006L7.71037 36.3313H7.71037L4.56351 38.8006ZM6.80548 16.4614L4.33621 13.3145L6.80548 16.4614ZM19.9321 13.6987L18.9887 17.5858L22.072 18.3342L23.5025 15.5022L19.9321 13.6987ZM41.7256 5.10745L40.3229 8.85344L41.7256 5.10745ZM53.0273 22.6528L49.0352 22.4013L48.7707 26.6005L52.9778 26.6525L53.0273 22.6528ZM51.2386 44.9818L51.9078 41.0382L51.2761 40.931L50.6425 41.0265L51.2386 44.9818ZM18.9483 41.0504C14.9215 41.5862 10.5646 39.9688 7.71037 36.3313L1.41665 41.2699C6.02379 47.1413 13.1786 49.8886 20.0034 48.9805L18.9483 41.0504ZM7.71037 36.3313C3.45992 30.9145 4.37231 23.4551 9.27475 19.6083L4.33621 13.3145C-4.27763 20.0736 -5.37276 32.6174 1.41665 41.2699L7.71037 36.3313ZM9.27475 19.6083C12.0577 17.4246 15.6144 16.7668 18.9887 17.5858L20.8756 9.81156C15.2921 8.45635 9.18292 9.51143 4.33621 13.3145L9.27475 19.6083ZM23.5025 15.5022C26.608 9.3541 33.8437 6.42731 40.3229 8.85344L43.1283 1.36145C32.7352 -2.53024 21.2618 2.19456 16.3618 11.8952L23.5025 15.5022ZM40.3229 8.85344C45.9876 10.9746 49.4033 16.5582 49.0352 22.4013L57.0194 22.9043C57.6002 13.685 52.2185 4.76529 43.1283 1.36145L40.3229 8.85344ZM52.9778 26.6525C56.3056 26.6936 59.4245 29.6722 59.4245 33.8868H67.4245C67.4245 25.7804 61.2561 18.7542 53.0767 18.6531L52.9778 26.6525ZM59.4245 33.8868C59.4245 38.1337 56.2616 41.1216 52.903 41.1216V49.1216C61.1661 49.1216 67.4245 42.0496 67.4245 33.8868H59.4245ZM52.903 41.1216C52.5621 41.1216 52.23 41.0929 51.9078 41.0382L50.5693 48.9254C51.3314 49.0548 52.1111 49.1216 52.903 49.1216V41.1216ZM50.6425 41.0265C50.6921 41.019 50.7408 41.0155 50.7878 41.0155V49.0155C51.1412 49.0155 51.491 48.989 51.8346 48.9372L50.6425 41.0265ZM50.7878 41.0155H19.4759V49.0155H50.7878V41.0155Z" fill="#D9DEE4" mask="url(#path-1-inside-1_921_8972)"/>
<path d="M31.1563 43.2083C31.1563 45.3069 30.5122 46.7266 29.6642 47.6087C28.8145 48.4926 27.6057 49 26.1562 49C24.5588 49 23.3797 48.5761 22.6008 47.8187C21.835 47.0741 21.1563 45.7153 21.1563 43.2083C21.1563 42.1467 21.49 40.8191 22.1005 39.33C22.7015 37.8641 23.5178 36.3681 24.3583 35.006C24.9667 34.0201 25.5768 33.1219 26.1076 32.3775C26.6586 33.1884 27.3004 34.1726 27.9405 35.2412C28.7881 36.6565 29.6115 38.1851 30.2175 39.6333C30.84 41.1211 31.1563 42.3464 31.1563 43.2083Z" fill="white" stroke="#C2D7EA" stroke-width="4"/>
<path d="M42.1563 54.3333C42.1563 55.7545 41.7297 56.6474 41.2376 57.1686C40.7469 57.6883 40.0419 58 39.1562 58C38.1204 58 37.4461 57.722 37.0279 57.3079C36.6169 56.901 36.1563 56.0688 36.1563 54.3333C36.1563 53.6558 36.3686 52.7613 36.7927 51.708C37.2078 50.6774 37.7755 49.6162 38.3666 48.6408C38.6181 48.2259 38.8702 47.8324 39.1111 47.4702C39.3753 47.8826 39.6542 48.3328 39.9324 48.8057C40.5306 49.8227 41.1053 50.9105 41.5251 51.9321C41.9608 52.9923 42.1563 53.8081 42.1563 54.3333Z" fill="white" stroke="#C2D7EA" stroke-width="4"/>
</svg>
