<svg width="64" height="64" viewBox="0 0 64 64" fill="none" xmlns="http://www.w3.org/2000/svg">
<path d="M31.8889 7V57.4434" stroke="#C0D7F3" stroke-width="4" stroke-linecap="round"/>
<path d="M24.8573 11.1338L31.8135 18.09" stroke="#C0D7F3" stroke-width="4" stroke-linecap="round"/>
<path d="M31.8868 18.1626L38.843 11.2064" stroke="#C0D7F3" stroke-width="4" stroke-linecap="round"/>
<path d="M38.843 53.3079L31.8868 46.3517" stroke="#C0D7F3" stroke-width="4" stroke-linecap="round"/>
<path d="M31.8135 46.2786L24.8573 53.2348" stroke="#C0D7F3" stroke-width="4" stroke-linecap="round"/>
<path d="M10.0272 19.5791L53.7125 44.8008" stroke="#C0D7F3" stroke-width="4" stroke-linecap="round"/>
<path d="M10.0963 27.7344L19.5987 25.1882" stroke="#C0D7F3" stroke-width="4" stroke-linecap="round"/>
<path d="M19.6979 25.1616L17.1517 15.6593" stroke="#C0D7F3" stroke-width="4" stroke-linecap="round"/>
<path d="M53.6115 36.7104L44.1091 39.2566" stroke="#C0D7F3" stroke-width="4" stroke-linecap="round"/>
<path d="M44.0099 39.2832L46.556 48.7856" stroke="#C0D7F3" stroke-width="4" stroke-linecap="round"/>
<path d="M10 44.8169L53.6852 19.5952" stroke="#C0D7F3" stroke-width="4" stroke-linecap="round"/>
<path d="M17.0946 48.8367L19.6408 39.3343" stroke="#C0D7F3" stroke-width="4" stroke-linecap="round"/>
<path d="M19.6682 39.2346L10.1659 36.6885" stroke="#C0D7F3" stroke-width="4" stroke-linecap="round"/>
<path d="M46.6285 15.6382L44.0824 25.1405" stroke="#C0D7F3" stroke-width="4" stroke-linecap="round"/>
<path d="M44.0549 25.2402L53.5573 27.7864" stroke="#C0D7F3" stroke-width="4" stroke-linecap="round"/>
</svg>
