<svg width="64" height="64" viewBox="0 0 64 64" fill="none" xmlns="http://www.w3.org/2000/svg">
<path d="M25.2477 11V48.4434" stroke="#D3E0EF" stroke-width="4" stroke-linecap="round"/>
<path d="M20.0267 14.0686L25.1902 19.2321" stroke="#D3E0EF" stroke-width="4" stroke-linecap="round"/>
<path d="M25.2445 19.2859L30.408 14.1224" stroke="#D3E0EF" stroke-width="4" stroke-linecap="round"/>
<path d="M30.4094 45.3735L25.2459 40.21" stroke="#D3E0EF" stroke-width="4" stroke-linecap="round"/>
<path d="M25.1918 40.1558L20.0283 45.3193" stroke="#D3E0EF" stroke-width="4" stroke-linecap="round"/>
<path d="M9.02026 20.3374L41.4472 39.0591" stroke="#D3E0EF" stroke-width="4" stroke-linecap="round"/>
<path d="M9.07251 26.3909L16.126 24.5009" stroke="#D3E0EF" stroke-width="4" stroke-linecap="round"/>
<path d="M16.1996 24.4812L14.3096 17.4277" stroke="#D3E0EF" stroke-width="4" stroke-linecap="round"/>
<path d="M41.3737 33.0535L34.3202 34.9434" stroke="#D3E0EF" stroke-width="4" stroke-linecap="round"/>
<path d="M34.2466 34.9631L36.1366 42.0166" stroke="#D3E0EF" stroke-width="4" stroke-linecap="round"/>
<path d="M9 39.0708L41.4269 20.3491" stroke="#D3E0EF" stroke-width="4" stroke-linecap="round"/>
<path d="M14.2662 42.0547L16.1562 35.0012" stroke="#D3E0EF" stroke-width="4" stroke-linecap="round"/>
<path d="M16.177 34.9272L9.12354 33.0373" stroke="#D3E0EF" stroke-width="4" stroke-linecap="round"/>
<path d="M36.1882 17.4121L34.2983 24.4656" stroke="#D3E0EF" stroke-width="4" stroke-linecap="round"/>
<path d="M34.2775 24.5396L41.3309 26.4295" stroke="#D3E0EF" stroke-width="4" stroke-linecap="round"/>
<path d="M53.1647 4V14" stroke="#D3E0EF" stroke-width="3" stroke-linecap="round"/>
<path d="M48.834 6.5L57.4942 11.5" stroke="#D3E0EF" stroke-width="3" stroke-linecap="round"/>
<path d="M48.834 11.5L57.4942 6.5" stroke="#D3E0EF" stroke-width="3" stroke-linecap="round"/>
<path d="M10.8301 55V61.5359" stroke="#D3E0EF" stroke-width="3" stroke-linecap="round"/>
<path d="M8 56.634L13.6603 59.902" stroke="#D3E0EF" stroke-width="3" stroke-linecap="round"/>
<path d="M8 59.9019L13.6603 56.6339" stroke="#D3E0EF" stroke-width="3" stroke-linecap="round"/>
<path d="M48.5739 38V55.4434" stroke="#D3E0EF" stroke-width="3" stroke-linecap="round"/>
<path d="M46.1401 39.4297L48.5456 41.8352" stroke="#D3E0EF" stroke-width="3" stroke-linecap="round"/>
<path d="M50.9779 54.0134L48.5724 51.608" stroke="#D3E0EF" stroke-width="3" stroke-linecap="round"/>
<path d="M42.5004 43.5L56.12 51.0707" stroke="#D3E0EF" stroke-width="3" stroke-linecap="round"/>
<path d="M56.0844 48.2732L52.7984 49.1537" stroke="#D3E0EF" stroke-width="3" stroke-linecap="round"/>
<path d="M41 51.0708L56.1064 42.3491" stroke="#D3E0EF" stroke-width="3" stroke-linecap="round"/>
<path d="M43.4556 52.4626L44.336 49.1767" stroke="#D3E0EF" stroke-width="3" stroke-linecap="round"/>
<path d="M53.6659 40.9817L52.7854 44.2676" stroke="#D3E0EF" stroke-width="3" stroke-linecap="round"/>
</svg>
