<svg width="64" height="64" viewBox="0 0 64 64" fill="none" xmlns="http://www.w3.org/2000/svg">
<circle cx="32.3247" cy="32.3247" r="13.959" stroke="#FDD04F" stroke-width="4"/>
<path d="M32.5 9V13.5597" stroke="#FDD04F" stroke-width="4" stroke-linecap="round"/>
<path d="M32.5 51.0896V55.6493" stroke="#FDD04F" stroke-width="4" stroke-linecap="round"/>
<path d="M9 32.5L13.9104 32.5" stroke="#FDD04F" stroke-width="4" stroke-linecap="round"/>
<path d="M51.0896 32.5L56 32.5" stroke="#FDD04F" stroke-width="4" stroke-linecap="round"/>
<path d="M20.7938 52.6882L23.1275 48.6461" stroke="#FDD04F" stroke-width="4" stroke-linecap="round"/>
<path d="M41.8722 16.1787L44.2059 12.1366" stroke="#FDD04F" stroke-width="4" stroke-linecap="round"/>
<path d="M20.7938 52.6882L23.1275 48.6461" stroke="#FDD04F" stroke-width="4" stroke-linecap="round"/>
<path d="M41.8722 16.1787L44.2059 12.1366" stroke="#FDD04F" stroke-width="4" stroke-linecap="round"/>
<path d="M12.2239 44.1189L16.266 41.7852" stroke="#FDD04F" stroke-width="4" stroke-linecap="round"/>
<path d="M48.7336 23.0398L52.7757 20.7061" stroke="#FDD04F" stroke-width="4" stroke-linecap="round"/>
<path d="M12.2239 44.1189L16.266 41.7852" stroke="#FDD04F" stroke-width="4" stroke-linecap="round"/>
<path d="M48.7336 23.0398L52.7757 20.7061" stroke="#FDD04F" stroke-width="4" stroke-linecap="round"/>
<path d="M52.7755 44.1184L48.7334 41.7847" stroke="#FDD04F" stroke-width="4" stroke-linecap="round"/>
<path d="M16.2664 23.0398L12.2243 20.7061" stroke="#FDD04F" stroke-width="4" stroke-linecap="round"/>
<path d="M20.7938 12.1365L23.1275 16.1786" stroke="#FDD04F" stroke-width="4" stroke-linecap="round"/>
<path d="M41.8722 48.646L44.2059 52.6881" stroke="#FDD04F" stroke-width="4" stroke-linecap="round"/>
</svg>
