<svg width="44" height="44" viewBox="0 0 44 44" fill="none" xmlns="http://www.w3.org/2000/svg">
<circle cx="22" cy="22" r="22" fill="#111111"/>
<g clip-path="url(#clip0_572_8022)">
<path d="M31.3891 16.5045C29.4783 17.7108 28.5744 19.4019 28.7277 21.6196C28.8803 23.8273 30.0357 25.3626 32.0001 26.3747C31.8905 26.682 31.7839 27.0058 31.6603 27.3229C31.0548 28.8807 30.1561 30.2648 29.0931 31.547C28.7042 32.0162 28.2395 32.4045 27.6866 32.6792C26.9337 33.0529 26.1657 33.0252 25.3931 32.7601C24.9998 32.6252 24.6149 32.4669 24.2256 32.3204C22.9436 31.8377 21.6813 31.908 20.4227 32.4251C19.9444 32.624 19.453 32.7904 18.9519 32.9232C18.1972 33.1195 17.5046 32.9284 16.8821 32.4771C16.2429 32.0137 15.7391 31.4195 15.264 30.7982C13.7589 28.8318 12.7703 26.6291 12.2809 24.2101C11.9393 22.5227 11.8716 20.8257 12.2933 19.1404C12.6807 17.5915 13.4434 16.2636 14.7338 15.2782C15.7888 14.4726 16.9841 14.0517 18.3223 14.0984C19.0409 14.1233 19.7082 14.3725 20.3724 14.6293C20.8552 14.8158 21.3489 14.9756 21.8401 15.1409C22.0564 15.214 22.2726 15.1956 22.4889 15.12C23.1623 14.8837 23.8355 14.6459 24.5123 14.4192C25.247 14.1734 25.9952 13.977 26.7789 14.0357C28.2309 14.1442 29.5445 14.6075 30.6096 15.6334C30.8858 15.8967 31.1212 16.2018 31.3891 16.5045Z" fill="white"/>
<path d="M26.8955 8C26.8955 8.35979 26.9292 8.70422 26.8899 9.04036C26.6913 10.7303 25.8516 12.0588 24.5041 13.0755C23.8266 13.5868 23.0469 13.8197 22.1915 13.7853C21.9616 13.7764 21.9653 13.7807 21.9554 13.5527C21.9038 12.3378 22.2746 11.256 22.9869 10.2795C23.8538 9.09136 25.0157 8.35856 26.4559 8.05684C26.594 8.02765 26.7389 8.01966 26.8955 8Z" fill="white"/>
</g>
<defs>
<clipPath id="clip0_572_8022">
<rect width="20" height="25" fill="white" transform="translate(12 8)"/>
</clipPath>
</defs>
</svg>
