<svg width="44" height="44" viewBox="0 0 44 44" fill="none" xmlns="http://www.w3.org/2000/svg">
<g id="Group 12532">
<circle id="Ellipse 189" cx="22" cy="22" r="21.75" fill="white" stroke="#D9D9D9" stroke-width="0.5"/>
<path id="Subtract" d="M8.55078 28.8993C11.002 33.8477 16.1037 37.2498 22.0001 37.2498C25.813 37.2498 29.2936 35.8272 31.94 33.4838L27.01 29.7276C25.578 30.689 23.8545 31.2498 22.0001 31.2498C18.0603 31.2498 14.7117 28.7183 13.4924 25.1931L8.55078 28.8993Z" fill="#3AAB58"/>
<path id="Intersect" d="M13.5 19.2505L13.5107 19.2564C13.1805 20.193 13 21.2009 13 22.2505C13.0001 23.2809 13.1753 24.27 13.4941 25.192L8.55078 28.899C7.55828 26.8952 7.00008 24.6381 7 22.2505C7 19.8053 7.58518 17.4962 8.62305 15.4566L13.5 19.2505Z" fill="#FBC015"/>
<path id="Union" d="M36.7441 19.5C36.9099 20.3916 37 21.3103 37 22.25C37 26.7214 35.042 30.7343 31.9385 33.4824L27.0098 29.7266C28.6034 28.6566 29.8363 27.0907 30.4873 25.25H22V19.5H36.7441Z" fill="#4A8AF4"/>
<path id="Subtract_2" d="M22.0002 7.25C25.8561 7.25 29.3722 8.70492 32.0294 11.0957L27.7769 15.3483C26.2137 14.0386 24.199 13.25 22.0002 13.25C18.0795 13.25 14.7444 15.757 13.5104 19.2554L13.5002 19.25L8.62305 15.4567C11.1013 10.5863 16.1611 7.25 22.0002 7.25Z" fill="#EB5042"/>
</g>
</svg>
